Coordinates
version=1
nRows=14
nColumns=33
inDegrees=yes

Units are S.I. units (second, meters, Newtons, ...)
Angles are in degrees.

endheader
time	ground_thorax_rot_x	ground_thorax_rot_y	ground_thorax_rot_z	ground_thorax_tx	ground_thorax_ty	ground_thorax_tz	clav_prot_r	clav_elev_r	scapula_abduction_r	scapula_elevation_r	scapula_upward_rot_r	scapula_winging_r	shoulder_elv_r	plane_of_elev_r	axial_rot_r	elbow_flexion_r	pro_sup_r	wrist_flex_r	wrist_dev_r	clav_prot_l	clav_elev_l	scapula_abduction_l	scapula_elevation_l	scapula_upward_rot_l	scapula_winging_l	shoulder_elv_l	plane_of_elev_l	axial_rot_l	elbow_flexion_l	pro_sup_l	wrist_flex_l	wrist_dev_l
     10.17000000	    -38.88571648	     -4.17273897	      6.58753135	    -80.83129439	    851.94723189	    -39.26396273	     21.71056803	    -45.00000000	     33.93228194	    -45.00000000	    -45.00000000	   1706.54553380	   1513.72964619	     23.90235171	    179.99999979	   1789.16684817	     23.44342358	      5.82746058	     -1.32492760	      3.03202725	     28.74922039	    -28.88299944	    -45.00000000	    -45.00000000	   2235.39310742	  -3860.35057952	     20.21164841	   -179.99999979	    704.02887272	    -52.76658574	     -1.70692243	    -11.21541666
     10.18000000	    -38.82632164	     -4.15053081	      6.61572483	    -80.69012759	    851.65299750	    -39.40115953	     21.60690556	    -45.00000000	     33.94874088	    -45.00000000	    -44.99000643	   1706.44132114	   1513.71081852	     23.99345239	    179.99999979	   1789.16186648	     22.91196580	      5.88959320	     -1.20132301	      3.00914695	     28.57342058	    -28.93220468	    -45.00000000	    -45.00000000	   2235.23063650	  -3860.42019679	     20.09148489	   -179.99999979	    703.95653408	    -52.85078004	     -1.16838299	    -11.08082418
     10.19000000	    -38.83135106	     -4.23851354	      6.71794133	    -80.52467110	    851.34611701	    -39.52955320	     21.65865643	    -45.00000000	     33.84820894	    -45.00000000	    -44.99706179	   1706.56343865	   1513.76442965	     23.86993571	    179.99999979	   1789.03824513	     22.37452200	      5.99595840	     -1.37744089	      3.03482089	     28.79970966	    -28.82218845	    -45.00000000	    -45.00000000	   2235.38473299	  -3860.29054119	     20.26727001	   -179.99999979	    704.05017311	    -52.92633826	     -1.84744618	    -11.29756620
     10.20000000	    -38.77926053	     -4.20448980	      6.66091914	    -80.33080328	    851.04120203	    -39.65315116	     21.66423912	    -45.00000000	     33.89200860	    -45.00000000	    -44.91937257	   1706.43690112	   1513.70535950	     24.02842869	    179.99999979	   1788.99306010	     21.61260813	      6.06611074	     -1.32753983	      2.99566494	     28.64015047	    -28.80922133	    -45.00000000	    -45.00000000	   2235.30558472	  -3860.26986288	     20.18258878	   -179.99999979	    703.90759693	    -53.07325037	     -1.36679736	    -11.14800183
     10.21000000	    -38.76748321	     -4.40301291	      6.81598640	    -80.09652404	    850.73797148	    -39.77918584	     21.65225097	    -45.00000000	     33.93218083	    -45.00000000	    -44.95365112	   1706.47154123	   1513.74423122	     23.96069969	    179.99999979	   1788.94776580	     20.92435250	      6.21872954	     -1.32245506	      2.96669237	     28.71208930	    -28.87719439	    -45.00000000	    -45.00000000	   2235.38316384	  -3860.45800580	     20.12583533	   -179.99999979	    703.95167481	    -53.17131176	     -1.47931132	    -11.10494214
     10.22000000	    -38.72717009	     -4.41009178	      6.81257253	    -79.82056949	    850.45253606	    -39.90799253	     21.69625723	    -45.00000000	     33.93370561	    -45.00000000	    -44.79565548	   1706.38949741	   1513.75890755	     24.03088812	    179.99999979	   1788.88245675	     20.25896477	      6.28923085	     -1.33326693	      2.94661249	     28.65752137	    -28.81727049	    -45.00000000	    -45.00000000	   2235.28652836	  -3860.36768535	     20.15484011	   -179.99999979	    703.99876126	    -53.26376585	     -1.31972207	    -11.12815700
     10.23000000	    -38.67594617	     -4.56394594	      7.05986451	    -79.50055783	    850.19214158	    -40.04196180	     21.66507416	    -45.00000000	     33.91727415	    -45.00000000	    -45.00000000	   1706.35752016	   1513.78011807	     23.87759103	    179.99999979	   1788.62264329	     19.66778896	      6.37697963	     -1.30268137	      2.93684335	     28.73681953	    -28.94827831	    -45.00000000	    -45.00000000	   2235.41612637	  -3860.55644828	     20.10673872	   -179.99999979	    703.95319208	    -53.31162605	     -1.49391353	    -11.05350434
     10.24000000	    -38.65362544	     -4.53489299	      7.04248005	    -79.12394159	    849.95274926	    -40.18753320	     21.76333254	    -45.00000000	     33.81927421	    -45.00000000	    -44.80785773	   1706.24618282	   1513.82544293	     24.12349070	    179.99999979	   1788.76199782	     19.05807624	      6.45277173	     -1.37736966	      2.92053960	     28.68094575	    -28.73972353	    -45.00000000	    -45.00000000	   2235.34145385	  -3860.19776353	     20.25338413	   -179.99999979	    703.88554453	    -53.36539159	     -1.35264435	    -11.11430449
     10.25000000	    -38.64885706	     -4.65087617	      7.10982213	    -78.69298356	    849.73975945	    -40.34422499	     21.71109104	    -45.00000000	     33.86114619	    -45.00000000	    -44.62866167	   1706.32099129	   1513.85009354	     23.98934016	    179.99999979	   1788.59885344	     18.43671693	      6.59614619	     -1.34971196	      2.95260828	     28.74570868	    -28.91244621	    -45.00000000	    -45.00000000	   2235.44473023	  -3860.39225129	     20.17683198	   -179.99999979	    703.92615810	    -53.35725537	     -1.49178543	    -11.01105873
     10.26000000	    -38.48537362	     -4.65287311	      6.89723769	    -78.20736729	    849.55137368	    -40.51271945	     21.65195817	    -45.00000000	     34.35400820	    -45.00000000	    -44.71742127	   1706.13290271	   1513.92831935	     24.02773221	    179.99999979	   1788.14872592	     17.94605281	      6.43479493	     -1.38288031	      2.93146163	     28.70820672	    -28.95257440	    -45.00000000	    -45.00000000	   2235.20957096	  -3860.60020655	     20.18760225	   -179.99999979	    704.14392360	    -53.30473806	     -1.27057733	    -11.11076078
     10.27000000	    -38.57706291	     -4.78394642	      7.05976084	    -77.65756480	    849.37955661	    -40.69595492	     21.75278596	    -45.00000000	     33.85088375	    -45.00000000	    -44.26490116	   1706.36744517	   1514.02323318	     24.17024769	    179.99999979	   1788.59350770	     17.48463111	      6.81526829	     -1.39153373	      2.94249439	     28.78905622	    -28.85311881	    -45.00000000	    -45.00000000	   2235.46388699	  -3860.32249937	     20.28887241	   -179.99999979	    703.94164710	    -53.19399602	     -1.58889917	    -10.97751826
     10.28000000	    -38.54411862	     -4.80937738	      7.15011719	    -77.04605396	    849.21847042	    -40.89215493	     21.66184945	    -45.00000000	     34.06370928	    -45.00000000	    -44.12543368	   1706.20126946	   1513.93837748	     24.05666099	    179.99999979	   1788.36911438	     16.99403777	      6.72569655	     -1.34836438	      3.01910618	     28.71664698	    -29.01548398	    -45.00000000	    -45.00000000	   2235.39997130	  -3860.37006001	     20.18188120	   -179.99999979	    703.80500360	    -53.00455128	     -1.33917766	    -10.91137398
     10.29000000	    -38.53348870	     -4.82587133	      7.10565492	    -76.37695808	    849.05957867	    -41.09847239	     21.67804235	    -45.00000000	     34.21092625	    -45.00000000	    -43.95812193	   1706.23101535	   1513.95309624	     24.00045800	    179.99999979	   1788.16498543	     16.66016544	      6.82033754	     -1.39401887	      2.99429383	     28.78845158	    -29.10250054	    -45.00000000	    -45.00000000	   2235.45623181	  -3860.39232772	     20.25626049	   -179.99999979	    703.82769500	    -52.77412766	     -1.57138085	    -10.86492889
     10.30000000	    -38.49005080	     -4.94704360	      7.24191532	    -75.64476943	    848.89046545	    -41.31461966	     21.66770687	    -45.00000000	     34.21847676	    -45.00000000	    -43.73696261	   1706.15318474	   1513.96594092	     24.04466409	    179.99999979	   1788.20472389	     16.37781337	      6.78239783	     -1.29403592	      3.10146498	     28.71752919	    -29.11754068	    -45.00000000	    -45.00000000	   2235.35861402	  -3860.37756375	     20.18771438	   -179.99999979	    703.74471417	    -52.50209450	     -1.25481742	    -10.78466784
